<svg width="154" height="154" viewBox="0 0 154 154" fill="none" xmlns="http://www.w3.org/2000/svg">
<g clip-path="url(#clip0_402_65)">
<path d="M77 13.8793C97.559 13.8793 99.9973 13.9562 108.121 14.3284C128.988 15.2781 138.735 25.179 139.684 45.892C140.057 54.0091 140.127 56.4474 140.127 77.0064C140.127 97.5718 140.05 100.004 139.684 108.121C138.728 128.815 129.007 138.735 108.121 139.684C99.9973 140.057 97.5718 140.134 77 140.134C56.441 140.134 54.0027 140.057 45.8856 139.684C24.9672 138.728 15.2717 128.783 14.322 108.114C13.9498 99.9973 13.8728 97.5654 13.8728 77C13.8728 56.441 13.9563 54.0091 14.322 45.8856C15.2781 25.179 24.9993 15.2717 45.8856 14.322C54.0091 13.9563 56.441 13.8793 77 13.8793V13.8793ZM77 0C56.0881 0 53.4701 0.0898333 45.2567 0.462C17.2929 1.74533 1.75175 17.2608 0.468417 45.2503C0.0898333 53.4701 0 56.0881 0 77C0 97.9119 0.0898333 100.536 0.462 108.75C1.74533 136.713 17.2608 152.255 45.2503 153.538C53.4701 153.91 56.0881 154 77 154C97.9119 154 100.536 153.91 108.75 153.538C136.688 152.255 152.267 136.739 153.532 108.75C153.91 100.536 154 97.9119 154 77C154 56.0881 153.91 53.4701 153.538 45.2567C152.28 17.3186 136.746 1.75175 108.756 0.468417C100.536 0.0898333 97.9119 0 77 0V0ZM77 37.4605C55.1641 37.4605 37.4605 55.1641 37.4605 77C37.4605 98.8359 55.1641 116.546 77 116.546C98.8359 116.546 116.54 98.8423 116.54 77C116.54 55.1641 98.8359 37.4605 77 37.4605ZM77 102.667C62.8256 102.667 51.3333 91.1808 51.3333 77C51.3333 62.8256 62.8256 51.3333 77 51.3333C91.1744 51.3333 102.667 62.8256 102.667 77C102.667 91.1808 91.1744 102.667 77 102.667ZM118.105 26.6613C112.997 26.6613 108.859 30.8 108.859 35.9012C108.859 41.0025 112.997 45.1412 118.105 45.1412C123.206 45.1412 127.339 41.0025 127.339 35.9012C127.339 30.8 123.206 26.6613 118.105 26.6613Z" fill="white"/>
</g>
<defs>
<clipPath id="clip0_402_65">
<rect width="154" height="154" fill="white"/>
</clipPath>
</defs>
</svg>
