<svg width="154" height="154" viewBox="0 0 154 154" fill="none" xmlns="http://www.w3.org/2000/svg">
<path d="M121.917 0H32.0833C14.3669 0 0 14.3669 0 32.0833V121.917C0 139.633 14.3669 154 32.0833 154H121.917C139.639 154 154 139.633 154 121.917V32.0833C154 14.3669 139.639 0 121.917 0ZM102.667 44.9167H90.321C86.3747 44.9167 83.4167 46.5337 83.4167 50.6211V57.75H102.667L101.139 77H83.4167V128.333H64.1667V77H51.3333V57.75H64.1667V45.4108C64.1667 32.4363 70.994 25.6667 86.3747 25.6667H102.667V44.9167Z" fill="white"/>
</svg>
